HIERARCHY
ROOT Hips
{
	OFFSET 0.000000 0.000000 0.000000
	CHANNELS 6 Xposition Yposition Zposition Zrotation Yrotation Xrotation 
	JOINT LHipJoint
	{
		OFFSET 0.000000 0.000000 0.000000
		CHANNELS 3 Zrotation Yrotation Xrotation
		JOINT LeftUpLeg
		{
			OFFSET 1.363060 -1.794630 0.839290
			CHANNELS 3 Zrotation Yrotation Xrotation
			JOINT LeftLeg
			{
				OFFSET 2.448110 -6.726130 0.000000
				CHANNELS 3 Zrotation Yrotation Xrotation
				JOINT LeftFoot
				{
					OFFSET 2.562200 -7.039590 0.000000
					CHANNELS 3 Zrotation Yrotation Xrotation
					JOINT LeftToeBase
					{
						OFFSET 0.157640 -0.433110 2.322550
						CHANNELS 3 Zrotation Yrotation Xrotation
						End Site
						{
							OFFSET 0.000000 0.000000 0.000000
						}
					}
				}
			}
		}
	}
	JOINT RHipJoint
	{
		OFFSET 0.000000 0.000000 0.000000
		CHANNELS 3 Zrotation Yrotation Xrotation
		JOINT RightUpLeg
		{
			OFFSET -1.305520 -1.794630 0.839290
			CHANNELS 3 Zrotation Yrotation Xrotation
			JOINT RightLeg
			{
				OFFSET -2.542530 -6.985550 0.000000
				CHANNELS 3 Zrotation Yrotation Xrotation
				JOINT RightFoot
				{
					OFFSET -2.568260 -7.056230 0.000000
					CHANNELS 3 Zrotation Yrotation Xrotation
					JOINT RightToeBase
					{
						OFFSET -0.164730 -0.452590 2.363150
						CHANNELS 3 Zrotation Yrotation Xrotation
						End Site
						{
							OFFSET 0.000000 0.000000 0.000000
						}
					}
				}
			}
		}
	}
}
MOTION
Frames: 13
Frame Time: 0.008333
-10.663498 16.773334 -1.937895 18.128465 83.606632 27.516023 -9.422881 -0.076519 2.626785 -11.297370 -1.648483 -37.069974 -1.741916 0.457921 25.753965 1.332669 7.643056 -3.083180 0.886800 0.000000 -20.119201 11.425677 -4.326126 -1.527031 0.119310 -12.372383 -2.606353 0.153347 -3.332448 40.361927 -0.188115 7.993920 18.509412 3.613999 0.000000 -89.406999
-10.486390 16.727127 -1.945937 21.002479 83.455332 30.073065 -9.299099 -0.000592 2.365585 -12.244038 -0.921329 -37.255844 -1.738028 0.605668 27.894315 1.291297 7.323630 -3.576943 0.760600 0.000000 -20.414800 11.789535 -4.214344 -1.602922 -0.983524 -13.186390 -4.208784 -0.118610 -3.507650 44.002573 -0.486429 6.814354 20.534147 3.466700 -0.000001 -87.275300
-10.314493 16.675977 -1.954990 23.566021 83.242374 32.305202 -9.167802 0.080278 2.091072 -13.174774 -0.181523 -37.424029 -1.735123 0.753787 30.079905 1.259454 6.994526 -4.331652 0.601001 0.000000 -20.677600 12.128719 -4.047440 -1.693344 -2.023501 -13.887211 -5.829572 -0.372003 -3.681221 47.732129 -0.810249 4.995395 22.113907 2.898700 -0.000001 -83.869600
-10.147736 16.620480 -1.964968 25.868291 82.985500 34.263157 -9.033091 0.162824 1.811426 -14.069009 0.511767 -37.530817 -1.730877 0.898324 32.259389 1.246194 6.720418 -5.325017 0.419800 -0.000000 -20.900601 12.440117 -3.835172 -1.803710 -2.995362 -14.473731 -7.451980 -0.609531 -3.865740 51.517891 -1.147387 2.589370 23.098073 1.913100 -0.000000 -79.357800
-9.985787 16.561578 -1.975857 27.949041 82.700845 35.990776 -8.899001 0.244735 1.533908 -14.910733 1.113470 -37.541753 -1.724612 1.036084 34.381627 1.257957 6.550280 -6.525036 0.223200 -0.000000 -21.083500 12.722622 -3.589204 -1.936021 -3.892530 -14.945899 -9.064699 -0.838854 -4.070592 55.315302 -1.486069 -0.266523 23.380300 0.606700 -0.000000 -74.046800
-9.828111 16.500570 -1.987486 29.851038 82.401176 37.537997 -8.767795 0.324904 1.264579 -15.692577 1.593023 -37.435096 -1.717038 1.164746 36.399638 1.298489 6.515609 -7.891529 0.011900 -0.000000 -21.228800 12.978102 -3.321168 -2.088211 -4.711602 -15.303911 -10.664176 -1.069724 -4.300376 59.073234 -1.814430 -3.361807 22.917619 -0.844300 -0.000000 -68.278200
-9.673984 16.438949 -1.999712 31.595431 82.095239 38.935137 -8.641849 0.402909 1.008000 -16.412101 1.937458 -37.203591 -1.709407 1.283246 38.275871 1.368484 6.627395 -9.378335 -0.217700 0.000000 -21.338000 13.208377 -3.041611 -2.254670 -5.447005 -15.547579 -12.253884 -1.310752 -4.554094 62.738767 -2.120410 -6.453243 21.737424 -2.230400 0.000000 -62.360800
-9.522631 16.378293 -2.012189 33.204214 81.787698 40.214083 -8.521682 0.479309 0.767131 -17.075099 2.148261 -36.852178 -1.703330 1.391253 39.981839 1.465985 6.879061 -10.935736 -0.470200 -0.000000 -21.412100 13.416546 -2.758537 -2.427395 -6.097672 -15.679489 -13.843201 -1.566778 -4.826226 66.261892 -2.391826 -9.308739 19.924282 -3.362800 -0.000000 -56.514900
-9.373270 16.320225 -2.024660 34.675138 81.480647 41.381709 -8.408674 0.554676 0.543374 -17.687849 2.242428 -36.396098 -1.700094 1.489119 41.500058 1.586102 7.246395 -12.512357 -0.748400 -0.000000 -21.452299 13.603810 -2.478097 -2.597176 -6.659801 -15.704193 -15.443529 -1.837442 -5.107924 69.596186 -2.616923 -11.743540 17.599367 -4.113900 -0.000000 -50.865300
-9.225119 16.266276 -2.036764 36.001222 81.174153 42.438575 -8.303869 0.629882 0.336763 -18.257117 2.247716 -35.855605 -1.700827 1.577313 42.820833 1.721551 7.692585 -14.057729 -1.049800 -0.000000 -21.463100 13.770696 -2.204311 -2.755127 -7.131188 -15.630624 -17.065931 -2.117076 -5.389073 72.700203 -2.784907 -13.632945 14.895784 -4.432101 0.000000 -45.446700
-9.077439 16.217920 -2.048252 37.164547 80.868750 43.371579 -8.209082 0.705735 0.146386 -18.786799 2.200171 -35.252146 -1.706447 1.656171 43.940334 1.863162 8.172383 -15.525376 -1.366000 -0.000000 -21.454700 13.916080 -1.940392 -2.893332 -7.507806 -15.470637 -18.716956 -2.395343 -5.659554 75.535277 -2.886620 -14.909996 11.942784 -4.337000 -0.000000 -40.234100
-8.929669 16.176348 -2.058777 38.161855 80.564143 44.178337 -8.124945 0.783587 -0.029516 -19.280441 2.137067 -34.602504 -1.718052 1.725748 44.857443 2.000997 8.638385 -16.875483 -1.683400 0.000000 -21.441500 14.039434 -1.687881 -3.006267 -7.790711 -15.241190 -20.397203 -2.658865 -5.910824 78.067436 -2.915414 -15.554993 8.857795 -3.902200 -0.000000 -35.182500
-8.781206 16.142582 -2.068147 38.988254 80.262005 44.852519 -8.052555 0.864689 -0.192855 -19.737695 2.094628 -33.917511 -1.736763 1.785724 45.571716 2.125493 9.046246 -18.077774 -1.984800 -0.000001 -21.440600 14.139296 -1.448122 -3.090250 -7.979298 -14.960126 -22.099871 -2.892644 -6.135764 80.264385 -2.868740 -15.589922 5.750832 -3.237300 -0.000000 -30.272900
